<svg preserveAspectRatio="none" width="100%" height="100%" overflow="visible" style="display: block;" viewBox="0 0 16.0015 16.0015" fill="none" xmlns="http://www.w3.org/2000/svg">
<g id="Icon">
<path id="Vector" d="M8.00064 14.8607C7.08389 14.8607 6.21922 14.6888 5.40664 14.345C4.59406 13.9908 3.88566 13.5116 3.28144 12.9073C2.67721 12.3031 2.20321 11.5999 1.85943 10.7978C1.50523 9.98519 1.32812 9.12052 1.32812 8.20377C1.32812 7.28701 1.50523 6.42235 1.85943 5.60977C2.20321 4.79719 2.67721 4.08879 3.28144 3.48456C3.88566 2.88034 4.59406 2.40633 5.40664 2.06255C6.21922 1.70835 7.08389 1.53125 8.00064 1.53125C8.9174 1.53125 9.78206 1.70835 10.5946 2.06255C11.4072 2.40633 12.1156 2.88034 12.7198 3.48456C13.3241 4.08879 13.7981 4.79719 14.1419 5.60977C14.4961 6.42235 14.6732 7.28701 14.6732 8.20377C14.6732 9.12052 14.4961 9.98519 14.1419 10.7978C13.7981 11.5999 13.3241 12.3031 12.7198 12.9073C12.1156 13.5116 11.4072 13.9908 10.5946 14.345C9.78206 14.6888 8.9174 14.8607 8.00064 14.8607ZM6.67239 5.26598L4.18778 7.73497L5.14099 8.67256L6.67239 7.14117L10.204 10.6728L11.1416 9.73517L6.67239 5.26598Z" fill="var(--fill-0, #12953D)"/>
</g>
</svg>
