<svg preserveAspectRatio="none" width="100%" height="100%" overflow="visible" style="display: block;" viewBox="0 0 16 16" fill="none" xmlns="http://www.w3.org/2000/svg">
<g id="Icon">
<path id="Vector" d="M13.3281 13.5312H2.67188C2.29688 13.5312 1.97917 13.401 1.71875 13.1406C1.45833 12.8802 1.32812 12.5677 1.32812 12.2031V4.20312C1.32812 3.83854 1.45833 3.52344 1.71875 3.25781C1.97917 2.99219 2.29688 2.85938 2.67188 2.85938H13.3281C13.7031 2.85938 14.0208 2.99219 14.2812 3.25781C14.5417 3.52344 14.6719 3.83854 14.6719 4.20312V12.2031C14.6719 12.5677 14.5417 12.8802 14.2812 13.1406C14.0208 13.401 13.7031 13.5312 13.3281 13.5312ZM13.3281 12.2031V11.8594L8 7.70312L2.67188 11.8594V12.2031H13.3281ZM2.67188 4.20312V10.1719L7.59375 6.34375C7.64583 6.30208 7.70833 6.26823 7.78125 6.24219C7.85417 6.21615 7.92708 6.20312 8 6.20312C8.07292 6.20312 8.14583 6.21615 8.21875 6.24219C8.29167 6.26823 8.35417 6.30208 8.40625 6.34375L13.3281 10.1719V4.20312H2.67188Z" fill="var(--fill-0, #12953D)"/>
</g>
</svg>
