<svg preserveAspectRatio="none" width="100%" height="100%" overflow="visible" style="display: block;" viewBox="0 0 16 16" fill="none" xmlns="http://www.w3.org/2000/svg">
<g id="Icon">
<path id="Vector" d="M11.7969 8C11.7448 8.0625 11.6771 8.11198 11.5938 8.14844C11.5104 8.1849 11.4219 8.20312 11.3281 8.20312C11.2344 8.20312 11.1484 8.1849 11.0703 8.14844C10.9922 8.11198 10.9219 8.0625 10.8594 8L9.79688 6.9375C9.55729 7.01042 9.23698 7.13281 8.83594 7.30469C8.4349 7.47656 8.08854 7.70833 7.79688 8C7.51562 8.29167 7.28906 8.63542 7.11719 9.03125C6.94531 9.42708 6.81771 9.75 6.73438 10L7.79688 11.0625C7.85938 11.125 7.90885 11.1953 7.94531 11.2734C7.98177 11.3516 8 11.4375 8 11.5312C8 11.625 7.98177 11.7135 7.94531 11.7969C7.90885 11.8802 7.85938 11.9479 7.79688 12L5.14062 14.6719C5.07812 14.7344 5.00781 14.7812 4.92969 14.8125C4.85156 14.8438 4.76562 14.8594 4.67188 14.8594C4.57812 14.8594 4.48958 14.8438 4.40625 14.8125C4.32292 14.7812 4.25521 14.7344 4.20312 14.6719L2.39062 12.8594C2.26562 12.7344 2.16927 12.5885 2.10156 12.4219C2.03385 12.2552 2 12.0833 2 11.9062C2 11.6667 2.02604 11.2969 2.07812 10.7969C2.14062 10.2969 2.26823 9.73177 2.46094 9.10156C2.65365 8.47135 2.9375 7.80208 3.3125 7.09375C3.69792 6.38542 4.21354 5.70833 4.85938 5.0625C5.51562 4.41667 6.19271 3.90104 6.89062 3.51562C7.59896 3.14062 8.27083 2.85677 8.90625 2.66406C9.54167 2.47135 10.1094 2.34375 10.6094 2.28125C11.1094 2.22917 11.474 2.20312 11.7031 2.20312H11.7344C11.901 2.20312 12.0651 2.23438 12.2266 2.29688C12.388 2.35938 12.5312 2.45833 12.6562 2.59375L14.4688 4.39062C14.5312 4.45312 14.5807 4.52604 14.6172 4.60938C14.6536 4.69271 14.6719 4.77604 14.6719 4.85938C14.6719 4.95312 14.6536 5.04167 14.6172 5.125C14.5807 5.20833 14.5312 5.28125 14.4688 5.34375L11.7969 8ZM11.7188 3.53125C11.5104 3.53125 11.1927 3.55729 10.7656 3.60938C10.3281 3.66146 9.83594 3.77083 9.28906 3.9375C8.74219 4.10417 8.16667 4.34896 7.5625 4.67188C6.94792 5.00521 6.35938 5.44792 5.79688 6C5.24479 6.5625 4.80208 7.15104 4.46875 7.76562C4.14583 8.36979 3.90104 8.94792 3.73438 9.5C3.56771 10.0521 3.45833 10.5417 3.40625 10.9688C3.35417 11.3958 3.32812 11.7135 3.32812 11.9219L4.67188 13.25L6.39062 11.5312L5.53125 10.6719C5.46875 10.6094 5.41927 10.5391 5.38281 10.4609C5.34635 10.3828 5.32812 10.2969 5.32812 10.2031C5.32812 10.1719 5.33073 10.1458 5.33594 10.125C5.34115 10.1042 5.34375 10.0833 5.34375 10.0625C5.35417 10.0208 5.47135 9.64844 5.69531 8.94531C5.91927 8.24219 6.30729 7.61458 6.85938 7.0625C7.41146 6.51042 8.04167 6.1224 8.75 5.89844C9.45833 5.67448 9.82812 5.55729 9.85938 5.54688C9.88021 5.54688 9.90365 5.54427 9.92969 5.53906C9.95573 5.53385 9.97917 5.53125 10 5.53125C10.0938 5.53125 10.1797 5.54948 10.2578 5.58594C10.3359 5.6224 10.4062 5.67188 10.4688 5.73438L11.3281 6.59375L13.0625 4.85938L11.7188 3.53125Z" fill="var(--fill-0, #12953D)"/>
</g>
</svg>
