<svg preserveAspectRatio="none" width="100%" height="100%" overflow="visible" style="display: block;" viewBox="0 0 16 16" fill="none" xmlns="http://www.w3.org/2000/svg">
<g id="Icon">
<path id="Vector" d="M13.0938 10.875C13.0938 10.8125 13.0938 10.7526 13.0938 10.6953C13.0938 10.638 13.0938 10.5781 13.0938 10.5156C13.0938 9.63021 12.9271 8.73438 12.5938 7.82812C12.2604 6.92188 11.7708 6.10156 11.125 5.36719C10.4792 4.63281 9.68229 4.03646 8.73438 3.57812C7.78646 3.10938 6.69271 2.875 5.45312 2.875C4.69271 2.875 3.96354 2.98177 3.26562 3.19531C2.56771 3.40885 1.92188 3.70312 1.32812 4.07812C1.44271 4.06771 1.55208 4.0599 1.65625 4.05469C1.76042 4.04948 1.86979 4.04688 1.98438 4.04688C1.98438 4.04688 1.98958 4.04688 2 4.04688C2.625 4.04688 3.22135 4.15104 3.78906 4.35938C4.35677 4.56771 4.86979 4.84896 5.32812 5.20312H5.3125C4.72917 5.21354 4.21094 5.39062 3.75781 5.73438C3.30469 6.07812 2.98958 6.51562 2.8125 7.04688V7.0625C2.88542 7.05208 2.96615 7.04167 3.05469 7.03125C3.14323 7.02083 3.22917 7.01562 3.3125 7.01562C3.4375 7.01562 3.55729 7.02344 3.67188 7.03906C3.78646 7.05469 3.90104 7.07812 4.01562 7.10938C3.40104 7.23438 2.88802 7.54167 2.47656 8.03125C2.0651 8.52083 1.85938 9.09375 1.85938 9.75V9.78125C2.04688 9.67708 2.24219 9.59635 2.44531 9.53906C2.64844 9.48177 2.85938 9.44792 3.07812 9.4375C2.71354 9.6875 2.42188 10.0078 2.20312 10.3984C1.98438 10.7891 1.875 11.2135 1.875 11.6719C1.875 11.9219 1.90885 12.1615 1.97656 12.3906C2.04427 12.6198 2.13542 12.8333 2.25 13.0312C2.58333 12.625 2.95312 12.2552 3.35938 11.9219C3.76562 11.5885 4.20312 11.3021 4.67188 11.0625C5.14062 10.8229 5.63542 10.6302 6.15625 10.4844C6.67708 10.3385 7.21354 10.25 7.76562 10.2188H7.78125C7.76042 10.3229 7.74479 10.4245 7.73438 10.5234C7.72396 10.6224 7.71875 10.724 7.71875 10.8281C7.71875 10.8281 7.71875 10.8307 7.71875 10.8359C7.71875 10.8411 7.71875 10.8438 7.71875 10.8438C7.71875 11.5833 7.98177 12.2135 8.50781 12.7344C9.03385 13.2552 9.66667 13.5156 10.4062 13.5156C10.7917 13.5156 11.1536 13.4401 11.4922 13.2891C11.8307 13.138 12.1198 12.9323 12.3594 12.6719C12.6823 12.7344 12.987 12.8229 13.2734 12.9375C13.5599 13.0521 13.8333 13.1823 14.0938 13.3281H14.0625C13.9583 13.0052 13.8073 12.7188 13.6094 12.4688C13.4115 12.2188 13.1771 12.0104 12.9062 11.8438H12.8906C13.1719 11.875 13.4453 11.9271 13.7109 12C13.9766 12.0729 14.2292 12.1615 14.4688 12.2656L14.4375 12.25C14.25 11.9792 14.0443 11.7292 13.8203 11.5C13.5964 11.2708 13.3594 11.0625 13.1094 10.875H13.0938Z" fill="var(--fill-0, #12953D)"/>
</g>
</svg>
