<svg preserveAspectRatio="none" width="100%" height="100%" overflow="visible" style="display: block;" viewBox="0 0 16 16" fill="none" xmlns="http://www.w3.org/2000/svg">
<g id="Icon">
<path id="Vector" d="M4.78125 12.8594C4.78125 12.4531 4.63802 12.1094 4.35156 11.8281C4.0651 11.5469 3.72396 11.4062 3.32812 11.4062C2.92188 11.4062 2.57552 11.5469 2.28906 11.8281C2.0026 12.1094 1.85938 12.4531 1.85938 12.8594C1.85938 13.2656 2.0026 13.6094 2.28906 13.8906C2.57552 14.1719 2.92188 14.3125 3.32812 14.3125C3.72396 14.3125 4.0651 14.1719 4.35156 13.8906C4.63802 13.6094 4.78125 13.2656 4.78125 12.8594ZM6.15625 10.2969V2.20312H8.67188V6.20312C8.67188 6.73438 8.76042 7.21354 8.9375 7.64062C9.11458 8.06771 9.52604 8.28125 10.1719 8.28125C10.8177 8.28125 11.1979 8.04167 11.3125 7.5625C11.4271 7.08333 11.4844 6.60938 11.4844 6.14062V2.20312H14V6.64062C14 7.73438 13.8151 8.65104 13.4453 9.39062C13.0755 10.1302 12.2552 10.5 10.9844 10.5C10.3698 10.5 9.86198 10.362 9.46094 10.0859C9.0599 9.8099 8.77604 9.51042 8.60938 9.1875H8.5625V10.2969H6.15625ZM2.0625 10.2969H4.57812V2.20312H2.0625V10.2969Z" fill="var(--fill-0, #12953D)"/>
</g>
</svg>
