<svg preserveAspectRatio="none" width="100%" height="100%" overflow="visible" style="display: block;" viewBox="0 0 16 16" fill="none" xmlns="http://www.w3.org/2000/svg">
<g id="Icon">
<path id="Vector" d="M8 11.2812C7.57292 11.2812 7.17188 11.2031 6.79688 11.0469C6.42188 10.8802 6.09635 10.6562 5.82031 10.375C5.54427 10.0938 5.32292 9.77083 5.15625 9.40625C5 9.03125 4.92188 8.63021 4.92188 8.20312C4.92188 7.77604 5 7.375 5.15625 7C5.32292 6.625 5.54427 6.29688 5.82031 6.01562C6.09635 5.73438 6.42188 5.51562 6.79688 5.35938C7.17188 5.19271 7.57292 5.10938 8 5.10938C8.42708 5.10938 8.82812 5.19271 9.20312 5.35938C9.57812 5.51562 9.90365 5.73438 10.1797 6.01562C10.4557 6.29688 10.6771 6.625 10.8438 7C11 7.375 11.0781 7.77604 11.0781 8.20312C11.0781 8.63021 11 9.03125 10.8438 9.40625C10.6771 9.77083 10.4557 10.0938 10.1797 10.375C9.90365 10.6562 9.57812 10.8802 9.20312 11.0469C8.82812 11.2031 8.42708 11.2812 8 11.2812ZM8 6.20312C7.44792 6.20312 6.97656 6.39844 6.58594 6.78906C6.19531 7.17969 6 7.65104 6 8.20312C6 8.75521 6.19531 9.22656 6.58594 9.61719C6.97656 10.0078 7.44792 10.2031 8 10.2031C8.55208 10.2031 9.02344 10.0078 9.41406 9.61719C9.80469 9.22656 10 8.75521 10 8.20312C10 7.65104 9.80469 7.17969 9.41406 6.78906C9.02344 6.39844 8.55208 6.20312 8 6.20312ZM11.9219 11.3906C11.9219 11.1927 11.8516 11.0234 11.7109 10.8828C11.5703 10.7422 11.401 10.6719 11.2031 10.6719C11.0052 10.6719 10.8359 10.7422 10.6953 10.8828C10.5547 11.0234 10.4844 11.1927 10.4844 11.3906C10.4844 11.5885 10.5547 11.7578 10.6953 11.8984C10.8359 12.0391 11.0052 12.1094 11.2031 12.1094C11.401 12.1094 11.5703 12.0391 11.7109 11.8984C11.8516 11.7578 11.9219 11.5885 11.9219 11.3906ZM13.6875 12.125C13.5312 12.5312 13.3021 12.8854 13 13.1875C12.6979 13.4896 12.349 13.7188 11.9531 13.875H11.9375C11.7188 13.9583 11.487 14.026 11.2422 14.0781C10.9974 14.1302 10.7448 14.1562 10.4844 14.1562H10.4688C10.1562 14.1771 9.86979 14.1901 9.60938 14.1953C9.34896 14.2005 8.8125 14.2031 8 14.2031C7.1875 14.2031 6.65104 14.2005 6.39062 14.1953C6.13021 14.1901 5.84375 14.1771 5.53125 14.1562C5.27083 14.1562 5.01562 14.1302 4.76562 14.0781C4.51562 14.026 4.27604 13.9583 4.04688 13.875H4.07812C3.67188 13.7188 3.31771 13.4896 3.01562 13.1875C2.71354 12.8854 2.48438 12.5365 2.32812 12.1406L2.3125 12.125C2.22917 11.9062 2.16406 11.6745 2.11719 11.4297C2.07031 11.1849 2.04167 10.9323 2.03125 10.6719C2.02083 10.349 2.01302 10.0599 2.00781 9.80469C2.0026 9.54948 2 9.01562 2 8.20312C2 7.38021 2.0026 6.84115 2.00781 6.58594C2.01302 6.33073 2.02083 6.04167 2.03125 5.71875C2.04167 5.46875 2.07031 5.22135 2.11719 4.97656C2.16406 4.73177 2.22917 4.49479 2.3125 4.26562C2.47917 3.85938 2.71354 3.50521 3.01562 3.20312C3.31771 2.90104 3.66146 2.67188 4.04688 2.51562H4.07812C4.28646 2.42188 4.51302 2.34896 4.75781 2.29688C5.0026 2.24479 5.25521 2.21354 5.51562 2.20312H5.53125C5.85417 2.19271 6.14323 2.1849 6.39844 2.17969C6.65365 2.17448 7.1875 2.17188 8 2.17188C8.8125 2.17188 9.34896 2.17448 9.60938 2.17969C9.86979 2.1849 10.1615 2.19271 10.4844 2.20312C10.7448 2.21354 11 2.24219 11.25 2.28906C11.5 2.33594 11.7396 2.40625 11.9688 2.5L11.9375 2.48438C12.3438 2.65104 12.6979 2.88281 13 3.17969C13.3021 3.47656 13.5312 3.82292 13.6875 4.21875V4.25C13.7812 4.47917 13.8516 4.71615 13.8984 4.96094C13.9453 5.20573 13.9688 5.45312 13.9688 5.70312C13.9792 6.02604 13.987 6.3151 13.9922 6.57031C13.9974 6.82552 14 7.35938 14 8.17188C14 8.98438 14 9.52083 14 9.78125C14 10.0417 13.9896 10.3281 13.9688 10.6406C13.9688 10.9115 13.9427 11.1745 13.8906 11.4297C13.8385 11.6849 13.7656 11.9271 13.6719 12.1562L13.6875 12.125ZM12.875 5.76562C12.875 5.56771 12.8568 5.3724 12.8203 5.17969C12.7839 4.98698 12.7292 4.80208 12.6562 4.625L12.6719 4.64062C12.5677 4.38021 12.4167 4.15104 12.2188 3.95312C12.0208 3.75521 11.7969 3.60938 11.5469 3.51562L11.5312 3.5C11.3646 3.4375 11.1875 3.38802 11 3.35156C10.8125 3.3151 10.6198 3.29688 10.4219 3.29688C10.099 3.28646 9.8151 3.27865 9.57031 3.27344C9.32552 3.26823 8.79688 3.26562 7.98438 3.26562C7.17188 3.26562 6.64323 3.26562 6.39844 3.26562C6.15365 3.26562 5.86979 3.27604 5.54688 3.29688C5.33854 3.29688 5.14062 3.3151 4.95312 3.35156C4.76562 3.38802 4.58333 3.44271 4.40625 3.51562L4.42188 3.5C4.16146 3.60417 3.93229 3.75521 3.73438 3.95312C3.53646 4.15104 3.38542 4.375 3.28125 4.625V4.64062C3.21875 4.80729 3.16927 4.98438 3.13281 5.17188C3.09635 5.35938 3.07812 5.55208 3.07812 5.75V5.76562C3.05729 6.07812 3.04688 6.35938 3.04688 6.60938C3.04688 6.85938 3.04688 7.38542 3.04688 8.1875C3.04688 9 3.04688 9.52865 3.04688 9.77344C3.04688 10.0182 3.05729 10.3021 3.07812 10.625C3.07812 10.8333 3.09635 11.0339 3.13281 11.2266C3.16927 11.4193 3.22396 11.6042 3.29688 11.7812L3.28125 11.75C3.38542 12.0208 3.53646 12.2552 3.73438 12.4531C3.93229 12.651 4.16146 12.7969 4.42188 12.8906C4.58854 12.9531 4.76562 13.0026 4.95312 13.0391C5.14062 13.0755 5.33854 13.099 5.54688 13.1094C5.85938 13.1198 6.14062 13.1276 6.39062 13.1328C6.64062 13.138 7.17188 13.1406 7.98438 13.1406C8.79688 13.1406 9.32552 13.138 9.57031 13.1328C9.8151 13.1276 10.099 13.1198 10.4219 13.1094C10.6198 13.099 10.8125 13.0755 11 13.0391C11.1875 13.0026 11.3698 12.9531 11.5469 12.8906H11.5312C11.7917 12.7865 12.0208 12.638 12.2188 12.4453C12.4167 12.2526 12.5677 12.026 12.6719 11.7656V11.75C12.7344 11.5938 12.7839 11.4193 12.8203 11.2266C12.8568 11.0339 12.875 10.8385 12.875 10.6406C12.8854 10.3281 12.8932 10.0469 12.8984 9.79688C12.9036 9.54688 12.9062 9.01562 12.9062 8.20312C12.9062 7.39062 12.9062 6.86198 12.9062 6.61719C12.9062 6.3724 12.901 6.08854 12.8906 5.76562H12.875Z" fill="var(--fill-0, #12953D)"/>
</g>
</svg>
