<svg preserveAspectRatio="none" width="100%" height="100%" overflow="visible" style="display: block;" viewBox="0 0 16 16" fill="none" xmlns="http://www.w3.org/2000/svg">
<g id="Icon">
<path id="Vector" d="M8.9375 2.20312V7.67188H10.7812L11.0469 9.8125H8.9375V11.1719C8.9375 11.474 9.0026 11.7214 9.13281 11.9141C9.26302 12.1068 9.54688 12.2031 9.98438 12.2031H11.1094V14.1094C10.8698 14.1406 10.6146 14.1641 10.3438 14.1797C10.0729 14.1953 9.80208 14.2031 9.53125 14.2031C9.52083 14.2031 9.51042 14.2031 9.5 14.2031C9.48958 14.2031 9.47917 14.2031 9.46875 14.2031C8.65625 14.2031 7.99479 13.9609 7.48438 13.4766C6.97396 12.9922 6.71875 12.2917 6.71875 11.375V9.8125H4.89062V7.67188H6.71875V2.20312H8.9375Z" fill="var(--fill-0, #12953D)"/>
</g>
</svg>
