<?xml version="1.0" encoding="UTF-8"?>
<svg id="Layer_2" data-name="Layer 2" xmlns="http://www.w3.org/2000/svg" xmlns:xlink="http://www.w3.org/1999/xlink" viewBox="0 0 287.99 24">
  <defs>
    <style>
      .cls-1 {
        fill: none;
      }

      .cls-2 {
        fill: #289bd7;
      }

      .cls-3 {
        fill: #ea1d25;
      }

      .cls-4, .cls-5 {
        fill: #fff;
      }

      .cls-6 {
        fill: #f3ba2c;
      }

      .cls-7 {
        fill: #f15c22;
      }

      .cls-8 {
        fill: #85b840;
      }

      .cls-9 {
        fill: #f69e1e;
      }

      .cls-10 {
        fill: #faa71b;
      }

      .cls-11 {
        clip-path: url(#clippath);
      }

      .cls-5 {
        isolation: isolate;
        opacity: .8;
      }
    </style>
    <clipPath id="clippath">
      <rect class="cls-1" width="30.9" height="24"/>
    </clipPath>
  </defs>
  <g id="Layer_1-2" data-name="Layer 1">
    <g id="Group_7223" data-name="Group 7223">
      <g class="cls-11">
        <g id="mastercard_f90415756b" data-name="mastercard f90415756b">
          <path id="Path_1841" data-name="Path 1841" class="cls-4" d="M5.6,23.9v-1.6c0-.5-.3-1-.9-1h-.2c-.4,0-.7.2-.9.5-.2-.3-.5-.5-.9-.5-.3,0-.6.1-.7.4v-.3h-.6v2.5h.6v-1.4c0-.5.2-.7.6-.7s.6.2.6.7v1.4h.6v-1.4c0-.3.2-.6.5-.7h.1c.4,0,.6.2.6.7v1.4h.6ZM13.9,21.4h-.9v-.8h-.6v.8h-.5v.5h.5v1.2c0,.6.2.9.9.9.2,0,.5,0,.7-.2l-.2-.5c-.1,0-.3.1-.5.1-.3,0-.4-.2-.4-.4v-1.1h.9v-.5h.1ZM18.6,21.3c-.3,0-.5.1-.7.4v-.3h-.6v2.5h.6v-1.4c0-.4.2-.7.5-.7h.3l.2-.5h-.4.1ZM11.4,21.6c-.3-.2-.7-.3-1-.3-.6,0-1.1.3-1.1.8s.3.7.9.7h.3c.3,0,.5.2.5.3s-.2.3-.6.3c-.3,0-.6,0-.9-.3l-.3.4c.3.2.7.3,1.1.3.7,0,1.2-.3,1.2-.8s-.3-.7-.9-.8h-.3c-.2,0-.4-.1-.4-.3s.2-.3.5-.3.6,0,.8.2l.2-.5v.3ZM26.3,21.3c-.3,0-.5.1-.7.4v-.3h-.6v2.5h.6v-1.4c0-.4.2-.7.5-.7h.3l.2-.5h-.4.1ZM19.1,22.7c0,.7.5,1.3,1.2,1.3h.1c.3,0,.6,0,.9-.3l-.3-.5c-.2.2-.4.2-.7.2-.4,0-.8-.3-.8-.7h0c0-.4.3-.8.7-.8h0c.2,0,.5,0,.7.2l.3-.5c-.3-.2-.6-.3-.9-.3-.7,0-1.3.5-1.4,1.2v.1h0l.2.1ZM24.3,22.7v-1.3h-.6v.3c-.2-.2-.5-.4-.8-.4-.7,0-1.3.6-1.3,1.4,0,.7.6,1.2,1.3,1.3.3,0,.6-.1.8-.4v.3h.6v-1.3.1ZM22.2,22.7c0-.4.3-.8.7-.8s.8.3.8.7v.1c0,.4-.3.8-.7.8s-.8-.3-.8-.7v-.1ZM15.6,21.3c-.7,0-1.3.6-1.3,1.3s.6,1.3,1.3,1.3c.4,0,.7-.1,1-.4l-.3-.4c-.2.2-.5.3-.7.3-.4,0-.7-.2-.8-.6h1.9v-.2c0-.6-.3-1.2-1-1.3h-.2.1ZM15.6,21.8c.3,0,.6.3.6.6h-1.3c0-.4.3-.6.7-.6ZM29.4,22.7v-2.3h-.6v1.3c-.2-.2-.5-.4-.8-.4-.7,0-1.3.6-1.3,1.4,0,.7.6,1.2,1.3,1.3.3,0,.6-.1.8-.4v.3h.6v-1.3.1ZM27.4,22.7c0-.4.3-.8.7-.8s.8.3.8.7v.1c0,.4-.3.8-.7.8s-.8-.3-.8-.7v-.1ZM8.7,22.7v-1.3h-.6v.3c-.2-.2-.5-.4-.8-.4-.7,0-1.3.6-1.3,1.4,0,.7.6,1.2,1.3,1.3.3,0,.6-.1.8-.4v.3h.6v-1.3.1ZM6.7,22.7c0-.4.3-.8.7-.8s.8.3.8.7v.1c0,.4-.3.8-.7.8s-.8-.3-.8-.7v-.1Z"/>
          <path id="Path_1842" data-name="Path 1842" class="cls-7" d="M19.6,2h-8.4v15h8.4V2Z"/>
          <path id="Path_1843" data-name="Path 1843" class="cls-3" d="M11.8,9.6c0-2.9,1.3-5.7,3.6-7.5C11.3-1.2,5.3-.5,2,3.7-1.2,7.8-.5,13.8,3.7,17.1c1.7,1.3,3.8,2,5.9,2s4.2-.7,5.9-2c-2.3-1.8-3.6-4.6-3.6-7.5h-.1Z"/>
          <path id="Path_1844" data-name="Path 1844" class="cls-9" d="M30.9,9.6c0,5.3-4.3,9.6-9.5,9.6-2.1,0-4.2-.7-5.9-2,4.1-3.3,4.9-9.3,1.6-13.5-.5-.6-1-1.1-1.6-1.6,4.1-3.3,10.1-2.5,13.4,1.6,1.3,1.7,2,3.8,2,5.9Z"/>
        </g>
      </g>
      <g id="visa_ee004925d2" data-name="visa ee004925d2">
        <path id="Path_1845" data-name="Path 1845" class="cls-5" d="M53.9,18.4h-3.2l2-12.2h3.2l-2,12.2Z"/>
        <path id="Path_1846" data-name="Path 1846" class="cls-5" d="M65.4,6.5c-.9-.3-1.9-.5-2.8-.5-3.1,0-5.3,1.7-5.3,4,0,1.8,1.6,2.7,2.8,3.3s1.6,1,1.6,1.5c0,.8-1,1.2-1.9,1.2-1,0-2-.2-3-.7l-.4-.2-.4,2.7c1.1.4,2.3.7,3.5.7,3.3,0,5.5-1.6,5.5-4.2,0-1.4-.8-2.5-2.7-3.3-1.1-.6-1.8-.9-1.8-1.5,0-.5.6-1.1,1.8-1.1.8,0,1.6.1,2.4.5h.3c0,.1.4-2.5.4-2.5v.1Z"/>
        <path id="Path_1847" data-name="Path 1847" class="cls-5" d="M69.6,14.1c.3-.7,1.3-3.4,1.3-3.4,0,0,.3-.7.4-1.2l.2,1.1s.6,2.9.7,3.5c0,0-2.6,0-2.6,0ZM73.5,6.2h-2.4c-.7,0-1.4.3-1.7,1l-4.7,11.2h3.3l.7-1.8h4.1c0,.4.4,1.8.4,1.8h2.9l-2.5-12.2h-.1Z"/>
        <path id="Path_1848" data-name="Path 1848" class="cls-5" d="M48.1,6.2l-3.1,8.3-.3-1.7c-.8-2.2-2.3-4-4.4-5.1l2.8,10.7h3.3l5-12.2h-3.3Z"/>
        <path id="Path_1849" data-name="Path 1849" class="cls-10" d="M42.1,6.2h-5.1v.2c3.4.7,6.3,3.1,7.6,6.4l-1.1-5.6c-.1-.7-.8-1.1-1.4-1Z"/>
      </g>
    </g>
    <path class="cls-4" d="M200.8,5.7h-12.9v12.2h13.1V5.8h-.2v-.1ZM196.7,13.7v.2h-4.2v-4h4.2v.2s0,3.6,0,3.6ZM227.3,9.9h-3.8c-.2,0-.3.1-.3.3v3.6c0,.2.1.3.3.3h3.8c.2,0,.3-.1.3-.3v-3.6c0-.2-.1-.3-.3-.3h0ZM222.9,5.7h-3.8c-.2,0-.3.1-.3.3v3.6c0,.2.1.3.3.3h3.8c.2,0,.3-.1.3-.3v-3.6c0-.2-.1-.3-.3-.3h0ZM231.8,5.7h-3.8c-.2,0-.3.1-.3.3v3.6c0,.2.1.3.3.3h3.8c.2,0,.3-.1.3-.3v-3.6c0-.2-.1-.3-.3-.3h0ZM222.9,14h-3.8c-.2,0-.3.1-.3.3v3.6c0,.2.1.3.3.3h3.8c.2,0,.3-.1.3-.3v-3.6c0-.2-.1-.3-.3-.3h0ZM231.8,14h-3.8c-.2,0-.3.1-.3.3v3.6c0,.2.1.3.3.3h3.8c.2,0,.3-.1.3-.3v-3.6c0-.2-.1-.3-.3-.3h0ZM216.3,5.7h-3.8c-.2,0-.3.1-.3.3v3.6c0,.2.1.3.3.3h3.8c.2,0,.3-.1.3-.3v-3.6c0-.2-.1-.3-.3-.3h0ZM216.3,14h-3.8c-.2,0-.3.1-.3.3v3.6c0,.2.1.3.3.3h3.8c.2,0,.3-.1.3-.3v-3.6c0-.2-.1-.3-.3-.3h0ZM212.2,10.1v-.2h-4.3v-4.1h-4.2v12.2c0,.1.1,0,.2,0h4v-4.1h4.3v-3.8Z"/>
    <g>
      <path class="cls-6" d="M87,9.9l3.9-3.9,3.9,3.9,2.3-2.3-6.2-6.2-6.2,6.2,2.3,2.3h0Z"/>
      <path class="cls-6" d="M80.8,11.5l2.3-2.3,2.3,2.3-2.3,2.3-2.3-2.3Z"/>
      <path class="cls-6" d="M87,13.1l3.9,3.9,3.9-3.9,2.3,2.3h0l-6.2,6.2-6.2-6.2h0l2.3-2.3h0Z"/>
      <path class="cls-6" d="M96.4,11.5l2.3-2.3,2.3,2.3-2.3,2.3-2.3-2.3Z"/>
      <path class="cls-6" d="M93.2,11.5l-2.3-2.3-1.7,1.7-.2.2-.4.4h0l2.3,2.3,2.3-2.3h0Z"/>
      <g>
        <path class="cls-6" d="M104.4,6.3h4.9c1.2,0,2.1.3,2.8,1,.5.5.7,1.1.7,1.8h0c0,.3,0,.6-.1.8,0,.2-.2.4-.3.6-.1.2-.3.4-.4.5-.2.1-.3.3-.5.4.6.2,1.1.5,1.5,1,.4.4.5,1,.5,1.7h0c0,.5,0,.9-.3,1.3-.2.4-.5.7-.8.9-.4.3-.8.4-1.3.5s-1.1.2-1.6.2h-5V6.3h-.1ZM108.9,10.6c.4,0,.9,0,1.2-.3.3-.2.5-.5.5-.9h0c0-.4-.1-.7-.4-.8-.3-.2-.6-.3-1.1-.3h-2.3v2.2h2.2l-.1.1ZM109.5,14.9c.4,0,.8,0,1.2-.3.3-.2.5-.5.4-.9h0c0-.4-.1-.7-.4-.9s-.7-.3-1.3-.3h-2.7v2.3h2.8v.1Z"/>
        <path class="cls-6" d="M116.4,6.3h2.3v10.6h-2.3V6.3Z"/>
        <path class="cls-6" d="M122.3,6.3h2.2l5,6.5v-6.5h2.3v10.6h-2l-5.1-6.8v6.8h-2.3V6.3h-.1Z"/>
        <path class="cls-6" d="M138.8,6.2h2.2l4.6,10.7h-2.4l-1-2.4h-4.5l-1,2.4h-2.4l4.6-10.7h-.1ZM141.3,12.5l-1.4-3.4-1.4,3.4h2.8,0Z"/>
        <path class="cls-6" d="M148,6.3h2.2l5,6.5v-6.5h2.3v10.6h-2l-5.1-6.8v6.8h-2.3V6.3h-.1Z"/>
        <path class="cls-6" d="M165.9,17.1c-.7,0-1.5-.1-2.2-.4-1.3-.5-2.3-1.6-2.9-2.9-.3-.7-.4-1.4-.4-2.1h0c0-1.5.5-2.9,1.6-3.9.5-.5,1.1-.9,1.7-1.2.7-.3,1.5-.4,2.2-.4.5,0,.9,0,1.4.1.4,0,.8.2,1.1.3.3.1.6.3.9.5.3.2.5.4.8.7l-1.5,1.7c-.4-.4-.8-.6-1.3-.9-.5-.2-.9-.3-1.5-.3-.8,0-1.7.3-2.2,1-.3.3-.5.7-.6,1.1-.2.4-.2.8-.2,1.3h0c0,.5,0,.9.2,1.3.1.4.4.8.6,1.1.6.6,1.4,1,2.2,1,.5,0,1.1,0,1.5-.3.5-.2.9-.6,1.3-.9l1.5,1.5c-.3.3-.5.5-.9.8-.3.2-.6.4-1,.6s-.8.3-1.1.4c-.5,0-.9.1-1.4.1l.2-.2Z"/>
        <path class="cls-6" d="M173,6.3h8v2.1h-5.7v2.2h5v2.1h-5v2.2h5.8v2.1h-8.1V6.3Z"/>
      </g>
    </g>
    <g>
      <rect class="cls-8" x="239.01" y="13.63" width="20.72" height="6.9"/>
      <rect class="cls-2" x="239.01" y="4.21" width="20.72" height="6.91"/>
      <path class="cls-4" d="M280.45,19.13l-.09.02c-.32.06-.44.09-.67.09-.54,0-1.18-.28-1.18-1.58,0-.67.11-1.56,1.12-1.56h0c.17.01.37.03.74.14l.08.02v2.87h0ZM280.62,12.63l-.17.03v2.41l-.15-.04h-.04c-.17-.06-.55-.17-.92-.17-2.02,0-2.44,1.53-2.44,2.81,0,1.75.98,2.76,2.7,2.76.73,0,1.26-.07,1.8-.25.5-.16.68-.39.68-.87v-6.92c-.48.09-.98.17-1.46.25"/>
      <path class="cls-4" d="M286.45,19.17l-.09.02-.31.08c-.29.07-.55.12-.74.12-.47,0-.76-.23-.76-.63,0-.26.12-.7.89-.7h1v1.11ZM285.74,14.82c-.62,0-1.26.11-2.05.36l-.52.15.17,1.17.5-.17c.53-.17,1.19-.28,1.68-.28.22,0,.9,0,.9.73v.32h-.94c-1.72,0-2.51.55-2.51,1.72,0,1,.73,1.61,1.96,1.61.38,0,.91-.07,1.37-.18h.02s.02,0,.02,0l.15.02c.48.09.98.17,1.46.26v-3.84c0-1.24-.75-1.88-2.23-1.88"/>
      <path class="cls-4" d="M274.49,19.17l-.09.02-.31.08c-.29.07-.54.12-.74.12-.47,0-.76-.23-.76-.63,0-.26.12-.7.89-.7h1v1.11h0ZM273.79,14.82c-.63,0-1.26.11-2.05.36l-.52.15.17,1.17.5-.17c.53-.17,1.19-.28,1.68-.28.22,0,.9,0,.9.73v.32h-.94c-1.72,0-2.52.55-2.52,1.72,0,1,.73,1.61,1.97,1.61.38,0,.91-.07,1.37-.18h.02s.02,0,.02,0l.15.02c.49.09.98.17,1.46.27v-3.84c0-1.26-.74-1.88-2.22-1.88"/>
      <path class="cls-4" d="M268.02,14.84c-.78,0-1.43.26-1.67.37l-.06.03-.06-.04c-.33-.24-.82-.36-1.5-.36-.6,0-1.16.09-1.77.26-.52.16-.73.41-.73.89v4.39h1.64v-4.05l.08-.02c.33-.11.53-.13.72-.13.47,0,.71.25.71.74v3.47h1.61v-3.54c0-.21-.04-.33-.05-.36l-.06-.1.11-.05c.25-.11.52-.17.8-.17.33,0,.71.13.71.74v3.47h1.61v-3.63c0-1.29-.69-1.91-2.12-1.91"/>
      <path class="cls-4" d="M285.24,8.71c-.24,0-.64-.02-.95-.09l-.09-.02v-2.37c0-.2-.04-.32-.04-.34l-.05-.1.1-.04s.05-.02.08-.03h.02s.07-.04.11-.05c.02,0,.03-.01.04-.01.36-.1.7-.09.84-.1h0c1,0,1.12.89,1.12,1.56,0,1.3-.65,1.58-1.19,1.58M285.24,4.21h-.04c-.94,0-1.91.26-2.25.76-.18.25-.29.55-.3.92h0v2.44c0,.21-.04.29-.05.31l-.06.1h-2.97v-1.7h0c-.04-1.79-1.1-2.77-2.63-2.77h-1.5c-.06.44-.11.74-.17,1.18h1.49c.78,0,1.19.66,1.19,1.69v1.71l-.1-.06s-.15-.05-.35-.05h-2.57c-.05.33-.11.75-.18,1.18h7.91c.27-.06.58-.1.86-.15.4.2,1.14.3,1.66.3,1.72,0,2.83-1.15,2.83-2.92,0-1.75-1.08-2.9-2.76-2.94"/>
      <path class="cls-4" d="M271.37,10.64h.07c1.72,0,2.52-.57,2.52-1.96,0-1-.73-1.8-1.96-1.8h-1.58c-.47,0-.76-.27-.76-.73,0-.31.12-.69.89-.69h3.46c.07-.45.11-.73.18-1.18h-3.59c-1.67,0-2.52.7-2.52,1.87s.73,1.76,1.96,1.76h1.58c.47,0,.76.38.76.77,0,.26-.12.79-.89.79h-5.33s-.92-.01-.92-.01c-.78,0-1.33-.44-1.33-1.47v-.71c0-1.07.42-1.74,1.33-1.74h1.5c.07-.46.11-.74.17-1.18h-2.05c-1.53,0-2.59,1.03-2.63,2.82h0v.8c.04,1.79,1.1,2.65,2.63,2.65h4.24s1.64,0,1.64,0h.63Z"/>
    </g>
  </g>
</svg>