<?xml version="1.0" encoding="UTF-8"?><svg id="Layer_2" xmlns="http://www.w3.org/2000/svg" xmlns:xlink="http://www.w3.org/1999/xlink" viewBox="0 0 1256.35 286.77"><defs><style>.cls-1{fill:url(#linear-gradient);}.cls-2{fill:url(#linear-gradient-3);}.cls-3{fill:url(#linear-gradient-4);}.cls-4{fill:url(#linear-gradient-2);}.cls-5{fill:url(#linear-gradient-6);}.cls-6{fill:url(#linear-gradient-5);}</style><linearGradient id="linear-gradient" x1="1028.22" y1="184.64" x2="1286.79" y2="122.59" gradientUnits="userSpaceOnUse"><stop offset="0" stop-color="#008845"/><stop offset="0" stop-color="#59dc65"/><stop offset=".89" stop-color="#008037"/></linearGradient><linearGradient id="linear-gradient-2" x1="1107.53" y1="43.73" x2="1107.53" y2="305.85" xlink:href="#linear-gradient"/><linearGradient id="linear-gradient-3" x1="1036" y1="115.93" x2="1169.53" y2="266.8" gradientUnits="userSpaceOnUse"><stop offset=".06" stop-color="#59dc65"/><stop offset=".89" stop-color="#008037"/></linearGradient><linearGradient id="linear-gradient-4" x1="1075.79" y1="50.93" x2="1075.79" y2="199.22" xlink:href="#linear-gradient"/><linearGradient id="linear-gradient-5" x1="1337.44" y1="222.01" x2="1248.02" y2="210.88" gradientTransform="translate(-173.09 -179.33)" gradientUnits="userSpaceOnUse"><stop offset=".15" stop-color="#008845"/><stop offset=".3" stop-color="#068e47"/><stop offset=".52" stop-color="#1aa04e"/><stop offset=".78" stop-color="#39be59"/><stop offset="1" stop-color="#59dc65"/></linearGradient><linearGradient id="linear-gradient-6" x1="1175.37" y1="83.05" x2="1175.37" y2="4.23" gradientTransform="matrix(1, 0, 0, 1, 0, 0)" xlink:href="#linear-gradient-5"/></defs><g id="Layer_1-2"><g><g><g><path d="M22.69,156.07c0,4.85-.89,8.29-2.73,10.54-1.98,2.39-4.98,3.6-8.93,3.6-2.15,0-4.82-.33-8.11-1l-2.91,13.07c5.17,1.47,10.09,2.22,14.66,2.22,7.75,0,13.5-2.27,17.57-6.93,4.12-4.72,6.21-11.95,6.21-21.5v-58.39h-15.75v58.39Z"/><path d="M233.12,78.92c1.83-1.84,2.73-3.98,2.73-6.53s-.89-4.69-2.73-6.53c-1.84-1.83-3.98-2.73-6.53-2.73s-4.69,.89-6.53,2.73c-1.83,1.83-2.72,3.97-2.72,6.53s.89,4.7,2.72,6.53c3.66,3.66,9.39,3.66,13.06,0Z"/><path d="M247.5,54.22c1.83-1.84,2.73-3.97,2.73-6.53s-.89-4.68-2.73-6.52c-1.83-1.84-3.97-2.73-6.53-2.73s-4.69,.89-6.53,2.73c-1.83,1.83-2.72,3.97-2.72,6.52s.89,4.7,2.72,6.53c3.68,3.67,9.4,3.67,13.06,0Z"/><path d="M246.25,72.39c0,2.56,.89,4.69,2.73,6.53,3.67,3.66,9.39,3.66,13.05,0,1.83-1.84,2.73-3.97,2.73-6.53s-.89-4.69-2.73-6.53c-1.84-1.83-3.97-2.73-6.53-2.73s-4.68,.89-6.52,2.73c-1.83,1.84-2.73,3.97-2.73,6.53Z"/><path d="M295,78.78c1.83-1.84,2.73-3.98,2.73-6.53s-.89-4.69-2.73-6.53c-1.84-1.83-3.98-2.73-6.53-2.73s-4.69,.89-6.53,2.73c-1.83,1.84-2.73,3.98-2.73,6.53s.89,4.69,2.73,6.53c3.66,3.66,9.39,3.66,13.06,0Z"/><path d="M323.91,78.78c1.83-1.84,2.73-3.98,2.73-6.53s-.89-4.69-2.73-6.53c-1.84-1.83-3.97-2.73-6.53-2.73s-4.69,.89-6.53,2.73c-1.83,1.83-2.72,3.97-2.72,6.53s.89,4.7,2.72,6.53c3.67,3.66,9.4,3.66,13.06,0Z"/><path d="M453.4,145.91h-13.99c-6.08,0-10.72-1.9-13.79-5.63-2.96-3.6-4.41-8.85-4.41-16.06v-31.77h-15.75v31.77c0,17.93-8.4,21.69-15.44,21.69h-16.74v-53.46h-15.75v53.46h-21.25c-9.06,0-15.75-2.12-19.91-6.28-3.71-3.93-5.56-9.09-5.56-15.41v-26.54h-15.75v26.54c0,7.07-2.05,12.54-6.09,16.23-3.96,3.62-9.06,5.46-15.16,5.46-9.05,0-15.75-2.12-19.91-6.28-3.71-3.93-5.56-9.09-5.56-15.41v-26.54h-15.75v26.54c0,7.07-2.05,12.54-6.09,16.23-3.96,3.62-9.06,5.46-15.16,5.46-9.05,0-15.75-2.12-19.91-6.28-3.21-3.4-5.01-7.84-5.41-13.24l-.03-.42,.08-.44c-.05-6.5-1.66-13.07-4.84-18.93-3.16-5.83-7.54-10.5-13-13.88-5.44-3.35-11.67-5.05-18.5-5.05-8.45,0-15.43,2.71-21.33,8.31-5.99,5.67-10.46,13.84-13.3,24.27-.41,1.33-1.06,3.97-2,8.03-1.02,4.27-1.89,7.34-2.67,9.39-.95,2.54-2.53,4.58-4.72,6.05-2.2,1.48-5.1,2.2-8.86,2.2h-21.11V60.78h-15.74v100.44h36.85c4.88,0,9.38-.87,13.38-2.58,3.93-1.69,7.22-4.14,9.78-7.31l1.99-2.46,2.41,2.04c4.06,3.42,8.51,6.02,13.22,7.73,10.69,3.89,22.21,3.36,31.42-1.56,3.35-1.79,6.38-4.27,8.98-7.37l2.68-3.2,2.28,3.49c.79,1.21,1.63,2.47,2.58,3.44,5.04,5.16,13.7,7.78,25.75,7.78,6.33,0,12.01-1.04,16.88-3.1,4.81-2.03,8.84-4.92,12-8.6l2.72-3.17,2.24,3.52c4.79,7.53,14.42,11.35,28.62,11.35,6.33,0,12.01-1.04,16.88-3.1,4.81-2.03,8.84-4.92,12-8.6l2.72-3.17,2.24,3.52c4.79,7.53,14.42,11.35,28.62,11.35h56.66c4.12,0,7.99-.93,11.49-2.77,3.55-1.86,6.67-4.53,9.3-7.94l2.76-3.58,2.35,3.86c2.1,3.47,4.94,6,8.68,7.74,3.83,1.78,8.81,2.69,14.82,2.69h26.83V87.66h-15.75v58.25Zm-289.37-4.06c-4.06,3.66-9.2,5.52-15.29,5.52-3.43,0-6.99-.62-10.58-1.84-3.61-1.22-7-3.08-10.08-5.52l-1.7-1.35,.68-2.06c.33-.97,.56-1.85,.68-2.62,.17-1.06,.37-1.98,.59-2.77,.43-2.9,1.21-6.06,2.23-9.03,2.09-6.25,4.46-10.77,7.27-13.79,3.06-3.31,7.08-4.99,11.93-4.99,6.15,0,11.2,2.24,14.99,6.67,3.68,4.29,5.54,9.68,5.54,16.03,0,6.7-2.1,11.99-6.25,15.73Z"/><path d="M524.57,188c-1.09-.95-1.63-2.2-1.63-3.75s.49-2.59,1.48-3.32c.98-.74,2.25-1.11,3.8-1.11,1.19,0,2.53,.28,4.01,.84l3.27-6.33c-2.6-1.26-5.24-1.9-7.91-1.9-3.45,0-6.37,1.01-8.76,3.01-2.39,2.01-3.59,4.59-3.59,7.76,0,2.67,.81,4.75,2.43,6.22h-2.43v6.65h21.95v-6.65h-8.44c-1.69,0-3.08-.47-4.17-1.42Z"/><path d="M626.7,145.91h-21.11c-9.04,0-15.75-2.12-19.91-6.28-3.71-3.93-5.56-9.09-5.56-15.41V60.78h-15.75v63.44c0,7.4-1.74,12.92-5.17,16.41-3.44,3.51-8.85,5.28-16.08,5.28h-3.45l-21.64-71.03h-16.19l21.64,71.03h-32.75v15.31h52.39c6.34,0,12.02-1.04,16.88-3.1,4.81-2.03,8.84-4.92,12-8.6l2.72-3.17,2.24,3.52c4.76,7.48,14.3,11.3,28.36,11.34h37.12s0-100.42,0-100.42h-15.75v85.12Z"/><path d="M729.86,177.55c-2.56,0-4.7,.89-6.53,2.72-1.83,1.84-2.73,3.98-2.73,6.53s.89,4.69,2.73,6.53c3.67,3.66,9.38,3.66,13.06,0,1.83-1.84,2.73-3.97,2.73-6.53s-.89-4.69-2.73-6.53c-1.83-1.83-3.97-2.72-6.53-2.72Z"/><polygon points="766.93 97.68 751.19 97.68 751.19 145.91 708.82 145.91 708.82 60.78 693.08 60.78 693.08 161.22 766.93 161.22 766.93 97.68"/><path d="M758.77,177.55c-2.56,0-4.7,.89-6.53,2.72-1.83,1.83-2.72,3.97-2.72,6.53s.89,4.7,2.72,6.53c3.68,3.66,9.38,3.66,13.06,0,1.83-1.84,2.73-3.97,2.73-6.53s-.89-4.69-2.73-6.53c-1.83-1.83-3.97-2.72-6.53-2.72Z"/><path d="M985.73,78.78c1.83-1.84,2.73-3.98,2.73-6.53s-.89-4.69-2.73-6.53c-1.84-1.83-3.98-2.73-6.53-2.73s-4.69,.89-6.53,2.73c-1.83,1.84-2.73,3.98-2.73,6.53s.89,4.69,2.73,6.53c3.66,3.66,9.39,3.66,13.06,0Z"/><path d="M971.84,145.91h-21.25c-9.05,0-15.75-2.12-19.91-6.28-3.21-3.4-5.01-7.84-5.41-13.24l-.03-.42,.08-.44c-.05-6.5-1.66-13.07-4.84-18.93-3.16-5.83-7.54-10.5-13-13.88-5.44-3.35-11.67-5.05-18.5-5.05-8.45,0-15.43,2.71-21.33,8.31-5.99,5.67-10.46,13.84-13.3,24.27-.41,1.33-1.06,3.97-2,8.03-1.02,4.27-1.89,7.34-2.67,9.39-.95,2.54-2.53,4.58-4.72,6.05-2.2,1.48-5.1,2.2-8.86,2.2h-28.98V60.78h-15.74v100.44h44.72c4.88,0,9.38-.87,13.38-2.58,3.93-1.69,7.22-4.14,9.78-7.31l1.99-2.46,2.41,2.04c4.06,3.42,8.51,6.02,13.22,7.73,10.69,3.89,22.21,3.36,31.42-1.56,3.35-1.79,6.38-4.27,8.98-7.37l2.68-3.2,2.28,3.49c.79,1.21,1.63,2.47,2.58,3.44,5.04,5.16,13.7,7.78,25.75,7.78h37v-63.54h-15.75v48.23Zm-68.57-4.06c-4.06,3.66-9.2,5.52-15.29,5.52-3.43,0-6.99-.62-10.58-1.84-3.61-1.22-7-3.08-10.08-5.52l-1.7-1.35,.68-2.06c.33-.97,.56-1.85,.68-2.62,.17-1.06,.37-1.98,.59-2.77,.43-2.9,1.21-6.06,2.23-9.03,2.09-6.25,4.46-10.77,7.27-13.79,3.06-3.31,7.08-4.99,11.93-4.99,6.15,0,11.2,2.24,14.99,6.67,3.68,4.29,5.54,9.68,5.54,16.03,0,6.7-2.1,11.99-6.25,15.73Z"/></g><g><path d="M.87,269.9v-59.35H6.04l40.96,51.56h-2.72v-51.56h6.19v59.35h-5.17L4.43,218.35h2.71v51.55H.87Z"/><path d="M81.07,270.32c-3.33,0-6.23-.55-8.69-1.65-2.46-1.1-4.34-2.63-5.64-4.58-1.3-1.95-1.95-4.2-1.95-6.74,0-2.31,.55-4.42,1.65-6.31,1.1-1.89,2.91-3.42,5.43-4.58,2.51-1.15,5.89-1.74,10.13-1.74h15.35v4.5h-15.17c-4.3,0-7.28,.76-8.95,2.29-1.66,1.52-2.5,3.42-2.5,5.68,0,2.54,.99,4.57,2.97,6.11,1.98,1.52,4.75,2.28,8.31,2.28s6.32-.77,8.78-2.33c2.46-1.55,4.25-3.79,5.38-6.74l1.36,4.16c-1.13,2.94-3.1,5.29-5.89,7.04-2.8,1.75-6.31,2.62-10.56,2.62Zm15.35-.42v-9.83l-.26-1.61v-16.45c0-3.78-1.06-6.7-3.17-8.73-2.13-2.04-5.27-3.06-9.46-3.06-2.88,0-5.62,.48-8.22,1.44-2.6,.97-4.81,2.24-6.62,3.82l-2.71-4.49c2.26-1.93,4.97-3.41,8.14-4.45,3.16-1.05,6.49-1.57,10-1.57,5.76,0,10.21,1.43,13.35,4.28,3.14,2.86,4.71,7.19,4.71,13.01v27.64h-5.77Z"/><path d="M174.17,224.96c3.62,0,6.77,.7,9.46,2.08,2.68,1.39,4.77,3.49,6.27,6.32,1.5,2.83,2.24,6.39,2.24,10.68v25.86h-6.02v-25.27c0-4.69-1.12-8.24-3.35-10.64-2.24-2.4-5.39-3.6-9.45-3.6-3.06,0-5.7,.63-7.93,1.9-2.24,1.28-3.96,3.11-5.17,5.51-1.21,2.4-1.82,5.3-1.82,8.69v23.4h-6.02v-25.27c0-4.69-1.13-8.24-3.39-10.64-2.26-2.4-5.43-3.6-9.49-3.6-3,0-5.63,.63-7.89,1.9-2.26,1.28-4,3.11-5.22,5.51-1.21,2.4-1.82,5.3-1.82,8.69v23.4h-6.02v-44.51h5.76v12.04l-.93-2.13c1.36-3.22,3.55-5.75,6.57-7.58,3.02-1.84,6.6-2.76,10.73-2.76,4.35,0,8.05,1.09,11.1,3.26,3.06,2.18,5.03,5.44,5.94,9.8l-2.37-.93c1.3-3.62,3.6-6.55,6.91-8.78,3.31-2.24,7.28-3.35,11.91-3.35Z"/><path d="M221.05,270.32c-3.33,0-6.23-.55-8.69-1.65-2.46-1.1-4.34-2.63-5.64-4.58-1.3-1.95-1.95-4.2-1.95-6.74,0-2.31,.55-4.42,1.65-6.31,1.1-1.89,2.91-3.42,5.43-4.58,2.51-1.15,5.89-1.74,10.13-1.74h15.35v4.5h-15.17c-4.3,0-7.28,.76-8.95,2.29-1.66,1.52-2.5,3.42-2.5,5.68,0,2.54,.99,4.57,2.97,6.11,1.98,1.52,4.75,2.28,8.31,2.28s6.32-.77,8.78-2.33c2.46-1.55,4.25-3.79,5.38-6.74l1.36,4.16c-1.13,2.94-3.1,5.29-5.89,7.04-2.8,1.75-6.31,2.62-10.56,2.62Zm15.35-.42v-9.83l-.26-1.61v-16.45c0-3.78-1.06-6.7-3.17-8.73-2.13-2.04-5.27-3.06-9.46-3.06-2.88,0-5.62,.48-8.22,1.44-2.6,.97-4.81,2.24-6.62,3.82l-2.71-4.49c2.26-1.93,4.97-3.41,8.14-4.45,3.16-1.05,6.49-1.57,10-1.57,5.76,0,10.21,1.43,13.35,4.28,3.14,2.86,4.71,7.19,4.71,13.01v27.64h-5.77Z"/><path d="M258.02,286.77c-2.1,0-4.08-.34-5.98-1.01-1.89-.68-3.52-1.7-4.87-3.06l2.79-4.49c1.13,1.08,2.36,1.91,3.69,2.5,1.32,.59,2.81,.89,4.45,.89,1.98,0,3.68-.55,5.13-1.66,1.44-1.1,2.82-3.04,4.11-5.81l2.88-6.53,.68-.93,18.32-41.29h5.93l-22.3,49.85c-1.24,2.88-2.62,5.17-4.11,6.87-1.5,1.7-3.13,2.9-4.87,3.61-1.75,.7-3.71,1.06-5.85,1.06Zm11.87-15.6l-20.52-45.78h6.28l18.14,40.87-3.9,4.91Z"/><path d="M314.83,270.32c-3.33,0-6.23-.55-8.69-1.65-2.46-1.1-4.34-2.63-5.64-4.58-1.3-1.95-1.95-4.2-1.95-6.74,0-2.31,.55-4.42,1.65-6.31,1.1-1.89,2.91-3.42,5.43-4.58,2.51-1.15,5.89-1.74,10.13-1.74h15.35v4.5h-15.17c-4.3,0-7.28,.76-8.95,2.29-1.66,1.52-2.5,3.42-2.5,5.68,0,2.54,.99,4.57,2.97,6.11,1.98,1.52,4.75,2.28,8.31,2.28s6.32-.77,8.78-2.33c2.46-1.55,4.25-3.79,5.38-6.74l1.36,4.16c-1.13,2.94-3.1,5.29-5.89,7.04-2.8,1.75-6.31,2.62-10.56,2.62Zm15.35-.42v-9.83l-.26-1.61v-16.45c0-3.78-1.06-6.7-3.17-8.73-2.13-2.04-5.27-3.06-9.46-3.06-2.88,0-5.62,.48-8.22,1.44-2.6,.97-4.81,2.24-6.62,3.82l-2.71-4.49c2.26-1.93,4.97-3.41,8.14-4.45,3.16-1.05,6.49-1.57,10-1.57,5.76,0,10.21,1.43,13.35,4.28s4.71,7.19,4.71,13.01v27.64h-5.77Z"/><path d="M367.56,230.39v-5h27.55v5h-27.55Zm7.97,39.51v-50.11c0-3.96,1.16-7.15,3.48-9.58,2.32-2.43,5.65-3.64,10-3.64,1.7,0,3.33,.23,4.91,.68,1.59,.46,2.91,1.16,3.99,2.12l-2.04,4.5c-.85-.74-1.84-1.29-2.97-1.66-1.13-.37-2.35-.55-3.64-.55-2.55,0-4.5,.71-5.85,2.12-1.36,1.41-2.04,3.51-2.04,6.28v6.78l.17,2.79v40.27h-6.02Z"/><path d="M420.63,270.32c-4.3,0-8.16-.97-11.57-2.92-3.42-1.95-6.12-4.64-8.1-8.06-1.98-3.42-2.97-7.33-2.97-11.74s.99-8.39,2.97-11.78c1.98-3.39,4.66-6.04,8.06-7.97,3.39-1.92,7.26-2.88,11.61-2.88s8.32,.97,11.74,2.88c3.42,1.93,6.11,4.58,8.05,7.97,1.95,3.39,2.93,7.32,2.93,11.78s-.97,8.33-2.93,11.74c-1.95,3.42-4.65,6.11-8.09,8.06-3.45,1.95-7.35,2.92-11.7,2.92Zm0-5.34c3.22,0,6.08-.72,8.56-2.16,2.49-1.44,4.45-3.48,5.89-6.11,1.44-2.63,2.17-5.66,2.17-9.11s-.72-6.55-2.17-9.16c-1.44-2.6-3.4-4.62-5.89-6.06-2.48-1.44-5.31-2.17-8.48-2.17s-5.99,.72-8.47,2.17c-2.49,1.44-4.47,3.46-5.94,6.06-1.47,2.6-2.2,5.65-2.2,9.16s.73,6.49,2.2,9.11c1.47,2.63,3.45,4.66,5.94,6.11,2.48,1.44,5.29,2.16,8.39,2.16Z"/><path d="M455.66,269.9v-44.51h5.76v12.12l-.59-2.12c1.24-3.39,3.33-5.98,6.27-7.76,2.94-1.78,6.59-2.67,10.94-2.67v5.85c-.23,0-.46-.01-.68-.04-.23-.03-.45-.04-.68-.04-4.69,0-8.37,1.43-11.03,4.28-2.66,2.86-3.98,6.91-3.98,12.17v22.72h-6.02Z"/><path d="M513.13,269.9v-59.35h6.27v59.35h-6.27Z"/><path d="M560.19,224.96c3.62,0,6.8,.7,9.54,2.08,2.74,1.39,4.89,3.49,6.44,6.32,1.55,2.83,2.33,6.39,2.33,10.68v25.86h-6.02v-25.27c0-4.69-1.17-8.24-3.51-10.64-2.35-2.4-5.64-3.6-9.88-3.6-3.17,0-5.92,.63-8.27,1.9-2.35,1.28-4.15,3.11-5.43,5.51-1.27,2.4-1.9,5.3-1.9,8.69v23.4h-6.02v-44.51h5.76v12.21l-.93-2.29c1.41-3.22,3.67-5.75,6.78-7.58,3.1-1.84,6.81-2.76,11.11-2.76Z"/><path d="M605.38,269.9l-19.75-44.51h6.28l18.14,41.29h-2.97l18.4-41.29h5.93l-19.84,44.51h-6.19Z"/><path d="M657.53,270.32c-4.64,0-8.71-.97-12.21-2.92-3.51-1.95-6.24-4.64-8.22-8.06-1.98-3.42-2.97-7.33-2.97-11.74s.95-8.31,2.84-11.7c1.89-3.39,4.49-6.06,7.8-8.02,3.31-1.95,7.02-2.93,11.15-2.93s7.9,.95,11.15,2.84c3.25,1.9,5.81,4.55,7.67,7.97,1.87,3.42,2.8,7.36,2.8,11.83,0,.28-.01,.58-.04,.89-.03,.31-.05,.63-.05,.98h-38.74v-4.5h35.52l-2.37,1.78c0-3.22-.69-6.09-2.08-8.6-1.38-2.51-3.26-4.48-5.64-5.89s-5.11-2.12-8.22-2.12-5.8,.7-8.22,2.12c-2.43,1.41-4.32,3.39-5.68,5.93-1.36,2.55-2.04,5.46-2.04,8.74v.93c0,3.39,.75,6.38,2.25,8.95,1.5,2.57,3.59,4.57,6.27,6.02,2.68,1.44,5.75,2.16,9.2,2.16,2.72,0,5.24-.48,7.59-1.44,2.35-.96,4.37-2.43,6.06-4.41l3.39,3.91c-1.98,2.37-4.45,4.18-7.42,5.42-2.97,1.24-6.23,1.86-9.79,1.86Z"/><path d="M701.78,270.32c-3.67,0-7.15-.52-10.43-1.57-3.28-1.04-5.85-2.36-7.72-3.94l2.72-4.75c1.81,1.35,4.13,2.53,6.95,3.52,2.83,.99,5.8,1.48,8.91,1.48,4.24,0,7.29-.67,9.16-1.99,1.86-1.33,2.79-3.1,2.79-5.3,0-1.64-.52-2.93-1.57-3.86-1.05-.93-2.41-1.64-4.11-2.12-1.7-.48-3.59-.9-5.68-1.24-2.1-.34-4.17-.73-6.24-1.19-2.06-.45-3.94-1.11-5.64-1.99-1.7-.88-3.06-2.08-4.11-3.61-1.04-1.52-1.57-3.56-1.57-6.1s.68-4.61,2.04-6.53c1.35-1.92,3.35-3.43,5.98-4.53,2.63-1.1,5.84-1.66,9.63-1.66,2.88,0,5.76,.39,8.65,1.15,2.88,.77,5.26,1.77,7.12,3.01l-2.62,4.84c-1.98-1.36-4.11-2.33-6.36-2.93-2.26-.59-4.53-.89-6.78-.89-4.02,0-6.97,.69-8.86,2.08-1.9,1.39-2.84,3.15-2.84,5.3,0,1.7,.52,3.02,1.57,3.99,1.05,.96,2.44,1.7,4.16,2.24,1.72,.54,3.62,.97,5.68,1.32,2.06,.34,4.13,.75,6.19,1.23,2.06,.48,3.95,1.13,5.68,1.95,1.72,.82,3.11,1.98,4.15,3.48,1.05,1.5,1.57,3.46,1.57,5.89,0,2.6-.72,4.85-2.17,6.74-1.44,1.9-3.53,3.37-6.27,4.41-2.74,1.05-6.06,1.57-9.96,1.57Z"/><path d="M724.25,230.39v-5h27.55v5h-27.55Zm21.02,39.93c-4.18,0-7.4-1.12-9.67-3.39-2.26-2.26-3.39-5.46-3.39-9.58v-41.8h6.02v41.46c0,2.6,.67,4.61,1.99,6.02,1.33,1.41,3.24,2.12,5.73,2.12,2.66,0,4.86-.77,6.61-2.29l2.12,4.33c-1.19,1.07-2.62,1.86-4.28,2.37-1.67,.51-3.38,.76-5.13,.76Z"/><path d="M821.24,224.96c3.62,0,6.77,.7,9.46,2.08,2.68,1.39,4.77,3.49,6.27,6.32,1.5,2.83,2.24,6.39,2.24,10.68v25.86h-6.02v-25.27c0-4.69-1.12-8.24-3.35-10.64-2.24-2.4-5.39-3.6-9.45-3.6-3.06,0-5.7,.63-7.93,1.9-2.24,1.28-3.96,3.11-5.17,5.51s-1.82,5.3-1.82,8.69v23.4h-6.02v-25.27c0-4.69-1.13-8.24-3.39-10.64-2.26-2.4-5.43-3.6-9.49-3.6-3,0-5.63,.63-7.89,1.9-2.26,1.28-4,3.11-5.22,5.51-1.21,2.4-1.82,5.3-1.82,8.69v23.4h-6.02v-44.51h5.76v12.04l-.93-2.13c1.36-3.22,3.55-5.75,6.57-7.58,3.02-1.84,6.6-2.76,10.73-2.76,4.35,0,8.05,1.09,11.1,3.26,3.06,2.18,5.03,5.44,5.94,9.8l-2.37-.93c1.3-3.62,3.6-6.55,6.91-8.78,3.31-2.24,7.28-3.35,11.91-3.35Z"/><path d="M874.48,270.32c-4.64,0-8.71-.97-12.21-2.92-3.51-1.95-6.24-4.64-8.22-8.06-1.98-3.42-2.97-7.33-2.97-11.74s.95-8.31,2.84-11.7c1.89-3.39,4.49-6.06,7.8-8.02,3.31-1.95,7.02-2.93,11.15-2.93s7.9,.95,11.15,2.84c3.25,1.9,5.81,4.55,7.67,7.97,1.87,3.42,2.8,7.36,2.8,11.83,0,.28-.01,.58-.04,.89-.03,.31-.05,.63-.05,.98h-38.74v-4.5h35.52l-2.37,1.78c0-3.22-.69-6.09-2.08-8.6-1.38-2.51-3.26-4.48-5.64-5.89s-5.11-2.12-8.22-2.12-5.8,.7-8.22,2.12c-2.43,1.41-4.32,3.39-5.68,5.93-1.36,2.55-2.04,5.46-2.04,8.74v.93c0,3.39,.75,6.38,2.25,8.95,1.5,2.57,3.59,4.57,6.27,6.02,2.68,1.44,5.75,2.16,9.2,2.16,2.72,0,5.24-.48,7.59-1.44,2.35-.96,4.37-2.43,6.06-4.41l3.39,3.91c-1.98,2.37-4.45,4.18-7.42,5.42-2.97,1.24-6.23,1.86-9.79,1.86Z"/><path d="M929.51,224.96c3.62,0,6.8,.7,9.54,2.08,2.74,1.39,4.89,3.49,6.44,6.32,1.55,2.83,2.33,6.39,2.33,10.68v25.86h-6.02v-25.27c0-4.69-1.17-8.24-3.51-10.64-2.35-2.4-5.64-3.6-9.88-3.6-3.17,0-5.92,.63-8.27,1.9-2.35,1.28-4.15,3.11-5.43,5.51-1.27,2.4-1.9,5.3-1.9,8.69v23.4h-6.02v-44.51h5.76v12.21l-.93-2.29c1.41-3.22,3.67-5.75,6.78-7.58,3.1-1.84,6.81-2.76,11.11-2.76Z"/><path d="M957.15,230.39v-5h27.55v5h-27.55Zm21.02,39.93c-4.18,0-7.4-1.12-9.67-3.39-2.26-2.26-3.39-5.46-3.39-9.58v-41.8h6.02v41.46c0,2.6,.67,4.61,1.99,6.02,1.33,1.41,3.24,2.12,5.73,2.12,2.66,0,4.86-.77,6.61-2.29l2.12,4.33c-1.19,1.07-2.62,1.86-4.28,2.37-1.67,.51-3.38,.76-5.13,.76Z"/></g></g><g><path class="cls-1" d="M1186.26,130.03v31.14c0,21.31-17.27,38.58-38.58,38.58h0c-21.31,0-38.58-17.27-38.58-38.58v-34.5c0-36.65-29.71-66.36-66.36-66.36h-3.73v123.41c0,47.57,38.56,86.12,86.12,86.12h45.1c47.57,0,86.12-38.56,86.12-86.12V60.31h-.37c-38.51,0-69.72,31.21-69.72,69.72Z"/><path class="cls-4" d="M1176.05,187.3h0c-7.05,7.65-17.15,12.44-28.37,12.44-21.31,0-38.58-17.27-38.58-38.58v-34.5c0-36.65-29.71-66.37-66.37-66.37h-3.73v123.41c0,39.78,26.98,73.24,63.63,83.14,72.9-15.56,73.41-79.55,73.41-79.55Z"/><path class="cls-2" d="M1176.05,187.3h0c-7.05,7.65-17.15,12.44-28.37,12.44-21.31,0-38.58-17.27-38.58-38.58v-34.5c0-36.65-29.71-66.37-66.37-66.37h-3.73v123.41c0,39.78,26.98,73.24,63.63,83.14,72.9-15.56,73.41-79.55,73.41-79.55Z"/><path class="cls-3" d="M1112.57,177.16c-2.22-4.87-3.47-10.29-3.47-15.99v-34.5c0-36.65-29.71-66.37-66.37-66.37h-3.73v63.21s32.09,43.9,73.57,53.64Z"/><path class="cls-6" d="M1147.68,0s-35.57,14.33-55.37,42.84c0,0,3.84,11.62,10.65,32.8,0,0,22.79-32.02,44.72-40.6,21.94,8.57,38.58,40.6,38.58,40.6,6.81-21.18,16.79-32.8,16.79-32.8-19.8-28.51-55.37-42.84-55.37-42.84Z"/><path class="cls-5" d="M1173.63,14.49c-9.65,12.52-25.95,20.56-25.95,20.56,21.94,8.57,38.58,40.6,38.58,40.6,6.81-21.18,16.79-32.8,16.79-32.8-8.3-11.95-19.37-21.4-29.43-28.36Z"/></g></g></g></svg>