<svg preserveAspectRatio="none" width="100%" height="100%" overflow="visible" style="display: block;" viewBox="0 0 140 26.25" fill="none" xmlns="http://www.w3.org/2000/svg">
<g id="Group">
<path id="Rectangle-path" d="M26.25 0H0V26.25H26.25V0Z" fill="var(--fill-0, #00B67A)"/>
<path id="Vector" d="M54.6875 0H28.4375V26.25H54.6875V0Z" fill="var(--fill-0, #00B67A)"/>
<path id="Vector_2" d="M83.125 0H56.875V26.25H83.125V0Z" fill="var(--fill-0, #00B67A)"/>
<path id="Vector_3" d="M111.562 0H85.3125V26.25H111.562V0Z" fill="var(--fill-0, #00B67A)"/>
<g id="Half">
<path id="Vector_4" d="M140 0H126.875V26.25H140V0Z" fill="var(--fill-0, #DCDCE6)"/>
<path id="Vector_5" d="M126.875 0H113.75V26.25H126.875V0Z" fill="var(--fill-0, #00B67A)"/>
</g>
<path id="Shape" d="M13.125 17.6914L17.1172 16.6797L18.7852 21.8203L13.125 17.6914ZM22.3125 11.0469H15.2852L13.125 4.42969L10.9648 11.0469H3.9375L9.625 15.1484L7.46484 21.7656L13.1523 17.6641L16.6523 15.1484L22.3125 11.0469Z" fill="var(--fill-0, white)"/>
<path id="Vector_6" d="M41.5625 17.6914L45.5547 16.6797L47.2227 21.8203L41.5625 17.6914ZM50.75 11.0469H43.7227L41.5625 4.42969L39.4023 11.0469H32.375L38.0625 15.1484L35.9023 21.7656L41.5898 17.6641L45.0898 15.1484L50.75 11.0469Z" fill="var(--fill-0, white)"/>
<path id="Vector_7" d="M70 17.6914L73.9922 16.6797L75.6602 21.8203L70 17.6914ZM79.1875 11.0469H72.1602L70 4.42969L67.8398 11.0469H60.8125L66.5 15.1484L64.3398 21.7656L70.0273 17.6641L73.5273 15.1484L79.1875 11.0469Z" fill="var(--fill-0, white)"/>
<path id="Vector_8" d="M98.4375 17.6914L102.43 16.6797L104.098 21.8203L98.4375 17.6914ZM107.625 11.0469H100.598L98.4375 4.42969L96.2773 11.0469H89.25L94.9375 15.1484L92.7773 21.7656L98.4648 17.6641L101.965 15.1484L107.625 11.0469Z" fill="var(--fill-0, white)"/>
<path id="Vector_9" d="M126.875 17.6914L130.867 16.6797L132.535 21.8203L126.875 17.6914ZM136.063 11.0469H129.035L126.875 4.42969L124.715 11.0469H117.688L123.375 15.1484L121.215 21.7656L126.902 17.6641L130.402 15.1484L136.063 11.0469Z" fill="var(--fill-0, white)"/>
</g>
</svg>
