<svg preserveAspectRatio="none" width="100%" height="100%" overflow="visible" style="display: block;" viewBox="0 0 120 29.4164" fill="none" xmlns="http://www.w3.org/2000/svg">
<g id="Group">
<path id="Vector" d="M31.5175 10.4592H43.6576V12.7471H38.895V25.4942H36.2802V12.7004H31.5175V10.4592ZM43.144 14.5681H45.3853V16.6693H45.432C45.5253 16.3891 45.6654 16.109 45.8522 15.8288C46.039 15.5487 46.3191 15.2685 46.5993 15.0817C46.8794 14.8483 47.2063 14.6615 47.5331 14.5214C47.86 14.3813 48.2335 14.288 48.6071 14.288H49.1674C49.2608 14.288 49.4008 14.3346 49.4942 14.3346V16.6226C49.3074 16.5759 49.1674 16.5759 48.9806 16.5292C48.7938 16.5292 48.6537 16.4825 48.467 16.4825C48.0467 16.4825 47.6732 16.5759 47.3464 16.716C46.9728 16.856 46.6927 17.1362 46.4125 17.4164C46.1323 17.7432 45.9456 18.1168 45.7588 18.5837C45.6187 19.0506 45.5253 19.5642 45.5253 20.1712V25.3541H43.144V14.5681ZM60.5604 25.4475H58.179V23.9533H58.1324C57.8522 24.5136 57.3853 24.9339 56.825 25.2607C56.2646 25.5876 55.6576 25.7743 55.0506 25.7743C53.6032 25.7743 52.5759 25.4475 51.9689 24.7004C51.3152 24 51.0351 22.9261 51.0351 21.4786V14.5681H53.4164V21.2452C53.4164 22.179 53.6032 22.8794 53.9767 23.2529C54.3503 23.6265 54.8639 23.8599 55.5176 23.8599C56.0312 23.8599 56.4514 23.7666 56.7783 23.6265C57.1051 23.4864 57.3853 23.2529 57.572 23.0195C57.8055 22.786 57.9456 22.4592 58.039 22.0856C58.1324 21.7121 58.179 21.3385 58.179 20.9183V14.6148H60.5604V25.4475ZM64.6226 21.9455C64.716 22.6459 64.9495 23.1129 65.4164 23.4397C65.8833 23.7199 66.4436 23.8599 67.0973 23.8599C67.3308 23.8599 67.5643 23.8599 67.8444 23.8133C68.1246 23.7666 68.4047 23.7199 68.6382 23.6265C68.8717 23.5331 69.1051 23.393 69.2452 23.2063C69.3853 23.0195 69.4787 22.786 69.4787 22.4592C69.4787 22.1323 69.3386 21.8989 69.1518 21.7121C68.9184 21.5253 68.6849 21.3852 68.358 21.2452C68.0312 21.1518 67.6577 21.0117 67.2374 20.9183L65.9767 20.6382C65.5098 20.5448 65.0896 20.4047 64.6693 20.2646C64.2491 20.1245 63.8756 19.9378 63.5487 19.7043C63.2219 19.4708 62.9417 19.144 62.7549 18.7704C62.5682 18.3969 62.4748 17.93 62.4748 17.4164C62.4748 16.8094 62.6149 16.3424 62.895 15.9222C63.1752 15.502 63.5487 15.2218 63.9689 14.9417C64.4359 14.7082 64.9028 14.5214 65.4631 14.428C66.0234 14.3346 66.537 14.288 67.004 14.288C67.5643 14.288 68.1246 14.3346 68.5915 14.4747C69.1051 14.5681 69.5721 14.8016 69.9923 15.035C70.4125 15.3152 70.7394 15.642 71.0195 16.0623C71.2997 16.4825 71.4865 16.9961 71.5331 17.6031H69.0117C68.9184 17.0428 68.6382 16.6226 68.218 16.4358C67.7977 16.249 67.3308 16.1557 66.8172 16.1557C66.6304 16.1557 66.4437 16.1557 66.2102 16.2024C65.9767 16.249 65.7433 16.2957 65.5565 16.3424C65.3697 16.4358 65.1829 16.5292 65.0429 16.6693C64.9028 16.8094 64.8094 16.9961 64.8094 17.2296C64.8094 17.5097 64.9028 17.7432 65.1363 17.93C65.323 18.1168 65.6032 18.2568 65.93 18.3969C66.2569 18.4903 66.6304 18.6304 67.0507 18.7238C67.4709 18.8171 67.8911 18.9105 68.358 19.0039C68.7783 19.0973 69.1985 19.2374 69.6188 19.3775C70.039 19.5175 70.4125 19.7043 70.7394 19.9378C71.0662 20.1712 71.3464 20.4981 71.5331 20.8249C71.7199 21.1518 71.86 21.6187 71.86 22.179C71.86 22.8327 71.7199 23.3463 71.3931 23.8133C71.1129 24.2802 70.6927 24.607 70.2724 24.8872C69.8055 25.1673 69.2919 25.3541 68.6849 25.4942C68.1246 25.6343 67.5643 25.681 66.9573 25.681C66.2569 25.681 65.6499 25.5876 65.0429 25.4475C64.4826 25.3074 63.9689 25.074 63.5487 24.7471C63.1285 24.4203 62.8016 24.0467 62.5215 23.5798C62.288 23.1129 62.1479 22.5526 62.1479 21.8989L64.6226 21.9455ZM72.5137 14.5681H74.3347V11.2996H76.716V14.5681H78.8639V16.3424H76.716V22.1323C76.716 22.3658 76.716 22.5992 76.7627 22.786C76.7627 22.9728 76.8561 23.1129 76.9028 23.2529C76.9962 23.393 77.0896 23.4864 77.2296 23.5331C77.3697 23.5798 77.6032 23.6265 77.8834 23.6265H78.397C78.5837 23.6265 78.7238 23.5798 78.9106 23.5331V25.4008C78.6304 25.4475 78.397 25.4475 78.1168 25.4942C77.8834 25.5409 77.6032 25.5409 77.323 25.5409C76.6693 25.5409 76.2024 25.4942 75.7822 25.3541C75.4086 25.2607 75.0818 25.074 74.895 24.8405C74.6616 24.607 74.5215 24.3269 74.4281 23.9533C74.3347 23.6265 74.288 23.2063 74.288 22.7393V16.3891H72.467L72.5137 14.5681ZM80.5915 14.5681H82.8795V16.0623H82.9262C83.253 15.4086 83.7199 14.9883 84.3269 14.7082C84.9339 14.428 85.5876 14.288 86.288 14.288C87.1285 14.288 87.8756 14.428 88.5293 14.7549C89.183 15.035 89.6966 15.4553 90.1168 16.0156C90.5371 16.5292 90.8639 17.1829 91.0507 17.8366C91.2841 18.537 91.3775 19.2841 91.3775 20.0778C91.3775 20.8249 91.2841 21.5253 91.0974 22.179C90.9106 22.8794 90.6304 23.4864 90.2569 24C89.8834 24.5136 89.3697 24.9339 88.8094 25.2607C88.2024 25.5876 87.5487 25.7277 86.7083 25.7277C86.3814 25.7277 86.0079 25.681 85.681 25.6343C85.3542 25.5876 84.9806 25.4475 84.6538 25.3074C84.3269 25.1673 84.0468 24.9806 83.7666 24.7471C83.4865 24.5136 83.253 24.2802 83.0662 24H83.0195V29.4164H80.6382V14.5681H80.5915ZM88.9495 20.0312C88.9495 19.5642 88.9028 19.0506 88.7627 18.5837C88.6227 18.1168 88.4359 17.6965 88.2024 17.3697C87.969 16.9961 87.6421 16.716 87.2686 16.5292C86.895 16.2957 86.4748 16.2024 85.9612 16.2024C84.9339 16.2024 84.1869 16.5292 83.6732 17.2296C83.1596 17.93 82.9262 18.8638 82.9262 20.0312C82.9262 20.5915 82.9728 21.1051 83.1129 21.572C83.253 22.0389 83.4398 22.4592 83.7199 22.786C84.0001 23.1129 84.2802 23.393 84.6538 23.5798C85.0273 23.7666 85.4476 23.8599 85.9612 23.8599C86.5215 23.8599 86.9884 23.7666 87.362 23.5331C87.7355 23.2996 88.0624 23.0195 88.2958 22.6459C88.5293 22.2724 88.716 21.8989 88.8094 21.4319C88.9028 20.965 88.9495 20.4981 88.9495 20.0312ZM93.1518 10.4592H95.5332V12.7471H93.1518V10.4592ZM93.1518 14.5681H95.5332V25.4475H93.1518V14.5681ZM97.681 10.4592H100.062V25.4475H97.681V10.4592ZM107.44 25.7277C106.553 25.7277 105.806 25.5876 105.105 25.3074C104.405 25.0273 103.844 24.607 103.378 24.1401C102.911 23.6265 102.537 23.0195 102.304 22.3191C102.07 21.6187 101.93 20.8249 101.93 20.0312C101.93 19.1907 102.07 18.4436 102.304 17.7432C102.537 17.0428 102.911 16.4358 103.378 15.9222C103.844 15.4086 104.405 15.035 105.105 14.7549C105.806 14.4747 106.553 14.3346 107.44 14.3346C108.327 14.3346 109.074 14.4747 109.774 14.7549C110.475 15.035 111.035 15.4553 111.502 15.9222C111.969 16.4358 112.343 17.0428 112.576 17.7432C112.809 18.4436 112.95 19.1907 112.95 20.0312C112.95 20.8716 112.809 21.6187 112.576 22.3191C112.343 23.0195 111.969 23.6265 111.502 24.1401C111.035 24.6537 110.475 25.0273 109.774 25.3074C109.074 25.5876 108.327 25.7277 107.44 25.7277ZM107.44 23.8599C107.953 23.8599 108.42 23.7666 108.841 23.5331C109.214 23.2996 109.541 23.0195 109.821 22.6459C110.055 22.2724 110.241 21.8522 110.381 21.4319C110.475 20.965 110.568 20.4981 110.568 20.0312C110.568 19.5642 110.522 19.0973 110.381 18.6304C110.288 18.1634 110.055 17.7432 109.821 17.4164C109.588 17.0428 109.261 16.7627 108.841 16.5292C108.467 16.2957 108 16.2024 107.44 16.2024C106.926 16.2024 106.459 16.2957 106.039 16.5292C105.665 16.7627 105.339 17.0428 105.058 17.4164C104.825 17.7899 104.638 18.1634 104.498 18.6304C104.405 19.0973 104.311 19.5642 104.311 20.0312C104.311 20.4981 104.358 20.965 104.498 21.4319C104.592 21.8989 104.825 22.3191 105.058 22.6459C105.292 23.0195 105.619 23.2996 106.039 23.5331C106.459 23.7666 106.926 23.8599 107.44 23.8599ZM113.603 14.5681H115.424V11.2996H117.806V14.5681H119.953V16.3424H117.806V22.1323C117.806 22.3658 117.806 22.5992 117.852 22.786C117.852 22.9728 117.946 23.1129 117.992 23.2529C118.086 23.393 118.179 23.4864 118.319 23.5331C118.459 23.5798 118.693 23.6265 118.973 23.6265H119.487C119.673 23.6265 119.813 23.5798 120 23.5331V25.4008C119.72 25.4475 119.487 25.4475 119.206 25.4942C118.973 25.5409 118.693 25.5409 118.413 25.5409C117.759 25.5409 117.292 25.4942 116.872 25.3541C116.498 25.2607 116.171 25.074 115.985 24.8405C115.751 24.607 115.611 24.3269 115.518 23.9533C115.424 23.6265 115.378 23.2063 115.378 22.7393V16.3891H113.557L113.603 14.5681Z" fill="var(--fill-0, #191919)"/>
<path id="Vector_2" d="M28.716 10.4592H17.7432L14.3813 0L10.9728 10.4592L0 10.4125L8.8716 16.856L5.46304 27.2685L14.3346 20.8249L23.2063 27.2685L19.7977 16.856L28.716 10.4592Z" fill="var(--fill-0, #04DA8D)"/>
<path id="Vector_3" d="M20.6382 19.2374L19.8911 16.856L14.3813 20.8249L20.6382 19.2374Z" fill="var(--fill-0, #005128)"/>
</g>
</svg>
